<svg xmlns="http://www.w3.org/2000/svg" viewBox="0 0 23 23"><path d="M1 1h7v7h-7zM9 1h1v3h-1zM11 1h1v2h1v1h1v5h1v1h-1v1h-1v-2h-1v-1h1v-1h-1v-1h1v-1h-2zM13 1h1v1h-1zM15 1h7v7h-7zM2 2v5h5v-5zM16 2v5h5v-5zM3 3h3v3h-3zM17 3h3v3h-3zM9 5h1v1h-1zM9 7h1v1h-1zM11 7h1v1h-1zM10 8h1v2h-1v3h-1v-1h-3v2h-3v-1h-1v-3h1v1h3v-1h-2v-1h6zM1 9h1v1h-1zM17 9h1v1h1v2h-2zM19 9h3v7h-1v-1h-1v-1h1v-1h-2v-1h2v-2h-2zM7 10v1h2v-1zM15 10h1v2h-2v-1h1zM11 12h2v1h-1v1h-2v-1h1zM7 13h1v1h-1zM15 13h1v1h-1zM18 13h1v2h-1zM9 14h1v5h-1zM12 14h2v1h2v-1h1v1h1v2h-1v1h-2v-1h1v-1h-1v1h-1v2h-2v-1h-1v-3h1v1h1v-1h-1zM1 15h7v7h-7zM19 15h1v4h2v1h-1v2h-2v-2h-1v-1h-1v-1h1v-1h1zM2 16v5h5v-5zM3 17h3v3h-3zM21 17h1v1h-1zM10 19h1v1h1v1h-2zM15 19h1v2h-2v-1h1zM17 20h1v1h-1zM9 21h1v1h-1zM12 21h1v1h-1z"/></svg>