<svg xmlns="http://www.w3.org/2000/svg" viewBox="0 0 23 23"><path d="M1 1h7v7h-7zM9 1h2v1h-2zM12 1h2v2h-1v2h1v4h-1v-2h-1v-3h-1v-1h1zM15 1h7v7h-7zM2 2v5h5v-5zM16 2v5h5v-5zM3 3h3v3h-3zM9 3h1v1h-1zM17 3h3v3h-3zM10 5h1v2h-1v1h-1v-2h1zM11 7h1v3h1v1h1v-1h2v-1h1v2h1v-1h1v-1h1v2h-1v2h-1v-1h-1v1h1v1h-6v-1h-3v1h-4v-1h3v-1h2v-2h1zM1 9h1v1h-1zM3 9h1v1h3v1h1v1h-2v-1h-2v1h1v1h-1v1h-1v-2h-1v-1h1zM7 9h2v1h-2zM21 9h1v1h-1zM11 11v1h1v-1zM15 11v1h1v-1zM20 11h2v3h-1v-1h-1zM1 12h1v1h-1zM13 12v1h1v-1zM9 14h3v4h-1v-2h-2zM18 14h1v2h-1zM1 15h7v7h-7zM15 15h1v1h-1zM21 15h1v3h-2v1h-1v1h1v1h1v-1h-1v-1h2v3h-11v-1h1v-3h1v1h1v-1h1v-1h1v1h1v1h1v-2h3zM2 16v5h5v-5zM13 16h1v1h-1zM17 16h1v1h-1zM3 17h3v3h-3zM10 18h1v1h-1zM9 19h1v1h-1zM15 19v1h1v-1zM10 20h1v1h-1zM13 20v1h1v-1zM17 20v1h1v-1zM9 21h1v1h-1z"/></svg>