<svg xmlns="http://www.w3.org/2000/svg" viewBox="0 0 23 23"><path d="M1 1h7v7h-7zM11 1h3v3h-1v-2h-1v1h-1zM15 1h7v7h-7zM2 2v5h5v-5zM16 2v5h5v-5zM3 3h3v3h-3zM9 3h2v1h2v1h-1v1h-1v-1h-1v1h1v1h-1v1h1v-1h1v2h1v1h2v-1h5v1h-1v1h-1v-1h-2v1h1v1h-1v1h-2v2h-1v-2h-1v1h-1v1h-2v-2h1v-1h3v-1h-1v-1h-1v-1h-2zM17 3h3v3h-3zM13 5h1v1h-1zM12 6h1v1h-1zM13 7h1v1h-1zM1 9h1v1h-1zM3 9h5v1h-1v1h-1v3h-3v-1h1v-1h1v-1h-2zM8 10h1v1h-1zM10 10h1v1h-1zM1 11h2v1h-2zM7 11h1v1h-1zM9 11h1v1h-1zM14 11v1h1v-1zM18 12h4v1h-1v1h-1v-1h-1v1h-1zM1 13h1v1h-1zM7 13h1v1h-1zM16 13h1v2h-1zM1 15h7v7h-7zM11 15h2v1h-2zM14 15h1v1h-1zM17 15h1v3h-1v-1h-1v-1h1zM19 15h2v1h-1v2h-1zM2 16v5h5v-5zM9 16h2v2h1v-1h1v1h1v-1h1v1h1v1h1v1h-1v1h-2v1h-1v-1h-1v-1h1v-1h-1v1h-1v1h-1v-1h-1zM21 16h1v1h-1zM3 17h3v3h-3zM18 18h1v1h-1zM14 19v1h1v-1zM18 20h1v1h-1zM21 20h1v1h-1zM9 21h1v1h-1zM16 21h1v1h-1zM19 21h1v1h-1z"/></svg>