<svg xmlns="http://www.w3.org/2000/svg" viewBox="0 0 23 23"><path d="M1 1h7v7h-7zM10 1h4v2h-1v-1h-1v2h-2v1h2v1h-2v2h1v-1h1v2h-1v1h-1v-1h-1v-6h2v-1h-1zM15 1h7v7h-7zM2 2v5h5v-5zM16 2v5h5v-5zM3 3h3v3h-3zM17 3h3v3h-3zM12 4h2v2h-1v-1h-1zM12 6h1v1h-1zM13 7h1v1h-1zM1 9h1v1h-1zM3 9h5v1h-3v2h1v2h-2v-2h-1v2h-1v-4h1zM12 9h1v1h2v-1h5v1h-1v1h-1v-1h-2v1h1v1h-1v1h-2v2h-1v-2h-1v-1h1v-1h-1zM9 10h1v1h-1zM7 11h2v1h-2zM14 11v1h1v-1zM9 12h1v1h-1zM18 12h4v1h-1v1h-1v-1h-1v2h-1zM7 13h1v1h-1zM10 13h1v1h1v1h1v1h-1v1h-1v2h1v1h-3v-4h1v-1h-1v-1h1zM16 13h1v2h-1zM1 15h7v7h-7zM14 15h1v1h-1zM17 15h1v3h-1v-1h-1v-1h1zM19 15h2v1h-1v2h-1zM2 16v5h5v-5zM21 16h1v1h-1zM3 17h3v3h-3zM12 17h1v1h1v-1h1v1h1v1h1v1h-1v1h-2v1h-1v-1h-1v-1h1v-1h-1zM18 18h1v1h-1zM14 19v1h1v-1zM18 20h1v1h-1zM21 20h1v1h-1zM9 21h1v1h-1zM11 21h1v1h-1zM16 21h1v1h-1zM19 21h1v1h-1z"/></svg>